<svg xmlns="http://www.w3.org/2000/svg" class="rounded-xl" viewBox="0 0 688.16 688.16"><rect width="688.16" height="688.16" fill="#beffbf" id="bg" class="bg"/><g><g transform="translate(0.00,&#10;                                0.00) rotate(90, 28.673333333333332, 28.673333333333332)"><svg xmlns="http://www.w3.org/2000/svg" id="Layer_1" data-name="Layer 1" viewBox="0 0 100 100" width="57.346666666666664" height="57.346666666666664"><path d="M50,100a50,50,0,1,1,50-50v50Z" fill="#7678ED"/></svg></g><g transform="translate(57.35,&#10;                                0.00) rotate(90, 28.673333333333332, 28.673333333333332)"><svg xmlns="http://www.w3.org/2000/svg" id="Layer_1" data-name="Layer 1" viewBox="0 0 100 100" width="57.346666666666664" height="57.346666666666664"><path d="M50,100a50,50,0,1,1,50-50v50Z" fill="#7678ED"/></svg></g><g transform="translate(57.35,&#10;                                57.35) rotate(90, 28.673333333333332, 28.673333333333332)"><svg xmlns="http://www.w3.org/2000/svg" id="Layer_1" data-name="Layer 1" viewBox="0 0 100 100" width="57.346666666666664" height="57.346666666666664"><path d="M100,100A50,50,0,0,0,0,100Z" fill="#3D348B"/></svg></g><g transform="translate(114.69,&#10;                                0.00) rotate(90, 28.673333333333332, 28.673333333333332)"><svg xmlns="http://www.w3.org/2000/svg" id="Layer_1" data-name="Layer 1" viewBox="0 0 100 100" width="57.346666666666664" height="57.346666666666664"><path d="M100,100A50,50,0,0,0,0,100Z" fill="#3D348B"/></svg></g><g transform="translate(172.04,&#10;                                0.00) rotate(0, 28.673333333333332, 28.673333333333332)"><svg xmlns="http://www.w3.org/2000/svg" id="Layer_1" data-name="Layer 1" viewBox="0 0 100 100" width="57.346666666666664" height="57.346666666666664"><path d="M50,100a50,50,0,1,1,50-50v50Z" fill="#7678ED"/></svg></g><g transform="translate(172.04,&#10;                                57.35) rotate(270, 28.673333333333332, 28.673333333333332)"><svg xmlns="http://www.w3.org/2000/svg" id="Layer_1" data-name="Layer 1" viewBox="0 0 100 100" width="57.346666666666664" height="57.346666666666664"><circle cx="50" cy="50" r="50" fill="#F18701"/></svg></g><g transform="translate(229.39,&#10;                                0.00) rotate(270, 28.673333333333332, 28.673333333333332)"><svg xmlns="http://www.w3.org/2000/svg" id="Layer_1" data-name="Layer 1" viewBox="0 0 100 100" width="57.346666666666664" height="57.346666666666664"><path d="M50,100h0A50,50,0,0,1,0,50V0H100V50A50,50,0,0,1,50,100Z" fill="#F7B801"/></svg></g><g transform="translate(286.73,&#10;                                0.00) rotate(180, 28.673333333333332, 28.673333333333332)"><svg xmlns="http://www.w3.org/2000/svg" id="Layer_1" data-name="Layer 1" viewBox="0 0 100 100" width="57.346666666666664" height="57.346666666666664"><path d="M50,100a50,50,0,1,1,50-50v50Z" fill="#7678ED"/></svg></g><g transform="translate(229.39,&#10;                                57.35) rotate(180, 28.673333333333332, 28.673333333333332)"><svg xmlns="http://www.w3.org/2000/svg" id="Layer_1" data-name="Layer 1" viewBox="0 0 100 100" width="57.346666666666664" height="57.346666666666664"><path d="M50,100h0A50,50,0,0,1,0,50V0H100V50A50,50,0,0,1,50,100Z" fill="#F7B801"/></svg></g><g transform="translate(286.73,&#10;                                57.35) rotate(0, 28.673333333333332, 28.673333333333332)"><svg xmlns="http://www.w3.org/2000/svg" id="Layer_1" data-name="Layer 1" viewBox="0 0 100 100" width="57.346666666666664" height="57.346666666666664"><path d="M100,100A50,50,0,0,0,0,100Z" fill="#3D348B"/></svg></g><g transform="translate(344.08,&#10;                                0.00) rotate(90, 28.673333333333332, 28.673333333333332)"><svg xmlns="http://www.w3.org/2000/svg" id="Layer_1" data-name="Layer 1" viewBox="0 0 100 100" width="57.346666666666664" height="57.346666666666664"><path d="M50,100a50,50,0,1,1,50-50v50Z" fill="#7678ED"/></svg></g><g transform="translate(401.43,&#10;                                0.00) rotate(270, 28.673333333333332, 28.673333333333332)"><svg xmlns="http://www.w3.org/2000/svg" id="Layer_1" data-name="Layer 1" viewBox="0 0 100 100" width="57.346666666666664" height="57.346666666666664"><path d="M50,100h0A50,50,0,0,1,0,50V0H100V50A50,50,0,0,1,50,100Z" fill="#F7B801"/></svg></g><g transform="translate(401.43,&#10;                                57.35) rotate(90, 28.673333333333332, 28.673333333333332)"><svg xmlns="http://www.w3.org/2000/svg" id="Layer_1" data-name="Layer 1" viewBox="0 0 100 100" width="57.346666666666664" height="57.346666666666664"><path d="M100,100A50,50,0,0,0,0,100Z" fill="#3D348B"/></svg></g><g transform="translate(458.77,&#10;                                0.00) rotate(90, 28.673333333333332, 28.673333333333332)"><svg xmlns="http://www.w3.org/2000/svg" id="Layer_1" data-name="Layer 1" viewBox="0 0 100 100" width="57.346666666666664" height="57.346666666666664"><path d="M50,100a50,50,0,1,1,50-50v50Z" fill="#7678ED"/></svg></g><g transform="translate(516.12,&#10;                                0.00) rotate(270, 28.673333333333332, 28.673333333333332)"><svg xmlns="http://www.w3.org/2000/svg" id="Layer_1" data-name="Layer 1" viewBox="0 0 100 100" width="57.346666666666664" height="57.346666666666664"><path d="M100,100A50,50,0,0,0,0,100Z" fill="#3D348B"/></svg></g><g transform="translate(516.12,&#10;                                57.35) rotate(270, 28.673333333333332, 28.673333333333332)"><svg xmlns="http://www.w3.org/2000/svg" id="Layer_1" data-name="Layer 1" viewBox="0 0 100 100" width="57.346666666666664" height="57.346666666666664"><circle cx="50" cy="50" r="50" fill="#F18701"/></svg></g><g transform="translate(573.47,&#10;                                0.00) rotate(90, 28.673333333333332, 28.673333333333332)"><svg xmlns="http://www.w3.org/2000/svg" id="Layer_1" data-name="Layer 1" viewBox="0 0 100 100" width="57.346666666666664" height="57.346666666666664"><path d="M50,100h0A50,50,0,0,1,0,50V0H100V50A50,50,0,0,1,50,100Z" fill="#F7B801"/></svg></g><g transform="translate(630.81,&#10;                                0.00) rotate(90, 28.673333333333332, 28.673333333333332)"><svg xmlns="http://www.w3.org/2000/svg" id="Layer_1" data-name="Layer 1" viewBox="0 0 100 100" width="57.346666666666664" height="57.346666666666664"><path d="M50,100a50,50,0,1,1,50-50v50Z" fill="#7678ED"/></svg></g><g transform="translate(630.81,&#10;                                57.35) rotate(0, 28.673333333333332, 28.673333333333332)"><svg xmlns="http://www.w3.org/2000/svg" id="Layer_1" data-name="Layer 1" viewBox="0 0 100 100" width="57.346666666666664" height="57.346666666666664"><path d="M100,100A50,50,0,0,0,0,100Z" fill="#3D348B"/></svg></g></g><g><g transform="translate(0.00,&#10;                                114.69) rotate(270, 28.673333333333332, 28.673333333333332)"><svg xmlns="http://www.w3.org/2000/svg" id="Layer_1" data-name="Layer 1" viewBox="0 0 100 100" width="57.346666666666664" height="57.346666666666664"><path d="M50,100a50,50,0,1,1,50-50v50Z" fill="#7678ED"/></svg></g><g transform="translate(57.35,&#10;                                114.69) rotate(0, 28.673333333333332, 28.673333333333332)"><svg xmlns="http://www.w3.org/2000/svg" id="Layer_1" data-name="Layer 1" viewBox="0 0 100 100" width="57.346666666666664" height="57.346666666666664"><path d="M50,100a50,50,0,1,1,50-50v50Z" fill="#7678ED"/></svg></g><g transform="translate(0.00,&#10;                                172.04) rotate(0, 28.673333333333332, 28.673333333333332)"><svg xmlns="http://www.w3.org/2000/svg" id="Layer_1" data-name="Layer 1" viewBox="0 0 100 100" width="57.346666666666664" height="57.346666666666664"><path d="M50,100h0A50,50,0,0,1,0,50V0H100V50A50,50,0,0,1,50,100Z" fill="#F7B801"/></svg></g><g transform="translate(114.69,&#10;                                114.69) rotate(180, 28.673333333333332, 28.673333333333332)"><svg xmlns="http://www.w3.org/2000/svg" id="Layer_1" data-name="Layer 1" viewBox="0 0 100 100" width="57.346666666666664" height="57.346666666666664"><circle cx="50" cy="50" r="50" fill="#F18701"/></svg></g><g transform="translate(172.04,&#10;                                114.69) rotate(180, 28.673333333333332, 28.673333333333332)"><svg xmlns="http://www.w3.org/2000/svg" id="Layer_1" data-name="Layer 1" viewBox="0 0 100 100" width="57.346666666666664" height="57.346666666666664"><path d="M50,100a50,50,0,1,1,50-50v50Z" fill="#7678ED"/></svg></g><g transform="translate(172.04,&#10;                                172.04) rotate(180, 28.673333333333332, 28.673333333333332)"><svg xmlns="http://www.w3.org/2000/svg" id="Layer_1" data-name="Layer 1" viewBox="0 0 100 100" width="57.346666666666664" height="57.346666666666664"><circle cx="50" cy="50" r="50" fill="#F18701"/></svg></g><g transform="translate(229.39,&#10;                                114.69) rotate(0, 28.673333333333332, 28.673333333333332)"><svg xmlns="http://www.w3.org/2000/svg" id="Layer_1" data-name="Layer 1" viewBox="0 0 100 100" width="57.346666666666664" height="57.346666666666664"><path d="M50,100a50,50,0,1,1,50-50v50Z" fill="#7678ED"/></svg></g><g transform="translate(286.73,&#10;                                114.69) rotate(180, 28.673333333333332, 28.673333333333332)"><svg xmlns="http://www.w3.org/2000/svg" id="Layer_1" data-name="Layer 1" viewBox="0 0 100 100" width="57.346666666666664" height="57.346666666666664"><path d="M100,100A50,50,0,0,0,0,100Z" fill="#3D348B"/></svg></g><g transform="translate(286.73,&#10;                                172.04) rotate(180, 28.673333333333332, 28.673333333333332)"><svg xmlns="http://www.w3.org/2000/svg" id="Layer_1" data-name="Layer 1" viewBox="0 0 100 100" width="57.346666666666664" height="57.346666666666664"><circle cx="50" cy="50" r="50" fill="#F18701"/></svg></g><g transform="translate(344.08,&#10;                                114.69) rotate(90, 28.673333333333332, 28.673333333333332)"><svg xmlns="http://www.w3.org/2000/svg" id="Layer_1" data-name="Layer 1" viewBox="0 0 100 100" width="57.346666666666664" height="57.346666666666664"><path d="M100,100A50,50,0,0,0,0,100Z" fill="#3D348B"/></svg></g><g transform="translate(344.08,&#10;                                172.04) rotate(270, 28.673333333333332, 28.673333333333332)"><svg xmlns="http://www.w3.org/2000/svg" id="Layer_1" data-name="Layer 1" viewBox="0 0 100 100" width="57.346666666666664" height="57.346666666666664"><path d="M50,100h0A50,50,0,0,1,0,50V0H100V50A50,50,0,0,1,50,100Z" fill="#F7B801"/></svg></g><g transform="translate(401.43,&#10;                                172.04) rotate(0, 28.673333333333332, 28.673333333333332)"><svg xmlns="http://www.w3.org/2000/svg" id="Layer_1" data-name="Layer 1" viewBox="0 0 100 100" width="57.346666666666664" height="57.346666666666664"><circle cx="50" cy="50" r="50" fill="#F18701"/></svg></g><g transform="translate(458.77,&#10;                                114.69) rotate(90, 28.673333333333332, 28.673333333333332)"><svg xmlns="http://www.w3.org/2000/svg" id="Layer_1" data-name="Layer 1" viewBox="0 0 100 100" width="57.346666666666664" height="57.346666666666664"><path d="M50,100a50,50,0,1,1,50-50v50Z" fill="#7678ED"/></svg></g><g transform="translate(516.12,&#10;                                114.69) rotate(90, 28.673333333333332, 28.673333333333332)"><svg xmlns="http://www.w3.org/2000/svg" id="Layer_1" data-name="Layer 1" viewBox="0 0 100 100" width="57.346666666666664" height="57.346666666666664"><path d="M50,100h0A50,50,0,0,1,0,50V0H100V50A50,50,0,0,1,50,100Z" fill="#F7B801"/></svg></g><g transform="translate(458.77,&#10;                                172.04) rotate(270, 28.673333333333332, 28.673333333333332)"><svg xmlns="http://www.w3.org/2000/svg" id="Layer_1" data-name="Layer 1" viewBox="0 0 100 100" width="57.346666666666664" height="57.346666666666664"><path d="M50,100h0A50,50,0,0,1,0,50V0H100V50A50,50,0,0,1,50,100Z" fill="#F7B801"/></svg></g><g transform="translate(516.12,&#10;                                172.04) rotate(180, 28.673333333333332, 28.673333333333332)"><svg xmlns="http://www.w3.org/2000/svg" id="Layer_1" data-name="Layer 1" viewBox="0 0 100 100" width="57.346666666666664" height="57.346666666666664"><circle cx="50" cy="50" r="50" fill="#F18701"/></svg></g><g transform="translate(573.47,&#10;                                114.69) rotate(180, 28.673333333333332, 28.673333333333332)"><svg xmlns="http://www.w3.org/2000/svg" id="Layer_1" data-name="Layer 1" viewBox="0 0 100 100" width="57.346666666666664" height="57.346666666666664"><path d="M100,100A50,50,0,0,0,0,100Z" fill="#3D348B"/></svg></g><g transform="translate(630.81,&#10;                                114.69) rotate(180, 28.673333333333332, 28.673333333333332)"><svg xmlns="http://www.w3.org/2000/svg" id="Layer_1" data-name="Layer 1" viewBox="0 0 100 100" width="57.346666666666664" height="57.346666666666664"><path d="M50,100a50,50,0,1,1,50-50v50Z" fill="#7678ED"/></svg></g></g><g><g transform="translate(0.00,&#10;                                229.39) rotate(180, 28.673333333333332, 28.673333333333332)"><svg xmlns="http://www.w3.org/2000/svg" id="Layer_1" data-name="Layer 1" viewBox="0 0 100 100" width="57.346666666666664" height="57.346666666666664"><path d="M50,100h0A50,50,0,0,1,0,50V0H100V50A50,50,0,0,1,50,100Z" fill="#F7B801"/></svg></g><g transform="translate(114.69,&#10;                                229.39) rotate(90, 28.673333333333332, 28.673333333333332)"><svg xmlns="http://www.w3.org/2000/svg" id="Layer_1" data-name="Layer 1" viewBox="0 0 100 100" width="57.346666666666664" height="57.346666666666664"><path d="M100,100A50,50,0,0,0,0,100Z" fill="#3D348B"/></svg></g><g transform="translate(172.04,&#10;                                286.73) rotate(90, 28.673333333333332, 28.673333333333332)"><svg xmlns="http://www.w3.org/2000/svg" id="Layer_1" data-name="Layer 1" viewBox="0 0 100 100" width="57.346666666666664" height="57.346666666666664"><path d="M100,100A50,50,0,0,0,0,100Z" fill="#3D348B"/></svg></g><g transform="translate(229.39,&#10;                                229.39) rotate(180, 28.673333333333332, 28.673333333333332)"><svg xmlns="http://www.w3.org/2000/svg" id="Layer_1" data-name="Layer 1" viewBox="0 0 100 100" width="57.346666666666664" height="57.346666666666664"><path d="M50,100a50,50,0,1,1,50-50v50Z" fill="#7678ED"/></svg></g><g transform="translate(286.73,&#10;                                286.73) rotate(270, 28.673333333333332, 28.673333333333332)"><svg xmlns="http://www.w3.org/2000/svg" id="Layer_1" data-name="Layer 1" viewBox="0 0 100 100" width="57.346666666666664" height="57.346666666666664"><path d="M100,100A50,50,0,0,0,0,100Z" fill="#3D348B"/></svg></g><g transform="translate(344.08,&#10;                                229.39) rotate(180, 28.673333333333332, 28.673333333333332)"><svg xmlns="http://www.w3.org/2000/svg" id="Layer_1" data-name="Layer 1" viewBox="0 0 100 100" width="57.346666666666664" height="57.346666666666664"><path d="M100,100A50,50,0,0,0,0,100Z" fill="#3D348B"/></svg></g><g transform="translate(401.43,&#10;                                229.39) rotate(0, 28.673333333333332, 28.673333333333332)"><svg xmlns="http://www.w3.org/2000/svg" id="Layer_1" data-name="Layer 1" viewBox="0 0 100 100" width="57.346666666666664" height="57.346666666666664"><path d="M50,100a50,50,0,1,1,50-50v50Z" fill="#7678ED"/></svg></g><g transform="translate(344.08,&#10;                                286.73) rotate(270, 28.673333333333332, 28.673333333333332)"><svg xmlns="http://www.w3.org/2000/svg" id="Layer_1" data-name="Layer 1" viewBox="0 0 100 100" width="57.346666666666664" height="57.346666666666664"><path d="M50,100h0A50,50,0,0,1,0,50V0H100V50A50,50,0,0,1,50,100Z" fill="#F7B801"/></svg></g><g transform="translate(401.43,&#10;                                286.73) rotate(180, 28.673333333333332, 28.673333333333332)"><svg xmlns="http://www.w3.org/2000/svg" id="Layer_1" data-name="Layer 1" viewBox="0 0 100 100" width="57.346666666666664" height="57.346666666666664"><circle cx="50" cy="50" r="50" fill="#F18701"/></svg></g><g transform="translate(516.12,&#10;                                229.39) rotate(90, 28.673333333333332, 28.673333333333332)"><svg xmlns="http://www.w3.org/2000/svg" id="Layer_1" data-name="Layer 1" viewBox="0 0 100 100" width="57.346666666666664" height="57.346666666666664"><path d="M50,100a50,50,0,1,1,50-50v50Z" fill="#7678ED"/></svg></g><g transform="translate(458.77,&#10;                                286.73) rotate(90, 28.673333333333332, 28.673333333333332)"><svg xmlns="http://www.w3.org/2000/svg" id="Layer_1" data-name="Layer 1" viewBox="0 0 100 100" width="57.346666666666664" height="57.346666666666664"><path d="M50,100h0A50,50,0,0,1,0,50V0H100V50A50,50,0,0,1,50,100Z" fill="#F7B801"/></svg></g><g transform="translate(573.47,&#10;                                229.39) rotate(270, 28.673333333333332, 28.673333333333332)"><svg xmlns="http://www.w3.org/2000/svg" id="Layer_1" data-name="Layer 1" viewBox="0 0 100 100" width="57.346666666666664" height="57.346666666666664"><circle cx="50" cy="50" r="50" fill="#F18701"/></svg></g><g transform="translate(630.81,&#10;                                286.73) rotate(270, 28.673333333333332, 28.673333333333332)"><svg xmlns="http://www.w3.org/2000/svg" id="Layer_1" data-name="Layer 1" viewBox="0 0 100 100" width="57.346666666666664" height="57.346666666666664"><path d="M100,100A50,50,0,0,0,0,100Z" fill="#3D348B"/></svg></g></g><g><g transform="translate(57.35,&#10;                                344.08) rotate(180, 28.673333333333332, 28.673333333333332)"><svg xmlns="http://www.w3.org/2000/svg" id="Layer_1" data-name="Layer 1" viewBox="0 0 100 100" width="57.346666666666664" height="57.346666666666664"><path d="M50,100a50,50,0,1,1,50-50v50Z" fill="#7678ED"/></svg></g><g transform="translate(57.35,&#10;                                401.43) rotate(90, 28.673333333333332, 28.673333333333332)"><svg xmlns="http://www.w3.org/2000/svg" id="Layer_1" data-name="Layer 1" viewBox="0 0 100 100" width="57.346666666666664" height="57.346666666666664"><path d="M100,100A50,50,0,0,0,0,100Z" fill="#3D348B"/></svg></g><g transform="translate(172.04,&#10;                                344.08) rotate(0, 28.673333333333332, 28.673333333333332)"><svg xmlns="http://www.w3.org/2000/svg" id="Layer_1" data-name="Layer 1" viewBox="0 0 100 100" width="57.346666666666664" height="57.346666666666664"><path d="M100,100A50,50,0,0,0,0,100Z" fill="#3D348B"/></svg></g><g transform="translate(229.39,&#10;                                344.08) rotate(270, 28.673333333333332, 28.673333333333332)"><svg xmlns="http://www.w3.org/2000/svg" id="Layer_1" data-name="Layer 1" viewBox="0 0 100 100" width="57.346666666666664" height="57.346666666666664"><path d="M50,100a50,50,0,1,1,50-50v50Z" fill="#7678ED"/></svg></g><g transform="translate(286.73,&#10;                                344.08) rotate(90, 28.673333333333332, 28.673333333333332)"><svg xmlns="http://www.w3.org/2000/svg" id="Layer_1" data-name="Layer 1" viewBox="0 0 100 100" width="57.346666666666664" height="57.346666666666664"><path d="M50,100a50,50,0,1,1,50-50v50Z" fill="#7678ED"/></svg></g><g transform="translate(286.73,&#10;                                401.43) rotate(0, 28.673333333333332, 28.673333333333332)"><svg xmlns="http://www.w3.org/2000/svg" id="Layer_1" data-name="Layer 1" viewBox="0 0 100 100" width="57.346666666666664" height="57.346666666666664"><path d="M100,100A50,50,0,0,0,0,100Z" fill="#3D348B"/></svg></g><g transform="translate(344.08,&#10;                                344.08) rotate(270, 28.673333333333332, 28.673333333333332)"><svg xmlns="http://www.w3.org/2000/svg" id="Layer_1" data-name="Layer 1" viewBox="0 0 100 100" width="57.346666666666664" height="57.346666666666664"><path d="M50,100a50,50,0,1,1,50-50v50Z" fill="#7678ED"/></svg></g><g transform="translate(344.08,&#10;                                401.43) rotate(90, 28.673333333333332, 28.673333333333332)"><svg xmlns="http://www.w3.org/2000/svg" id="Layer_1" data-name="Layer 1" viewBox="0 0 100 100" width="57.346666666666664" height="57.346666666666664"><path d="M50,100h0A50,50,0,0,1,0,50V0H100V50A50,50,0,0,1,50,100Z" fill="#F7B801"/></svg></g><g transform="translate(458.77,&#10;                                344.08) rotate(180, 28.673333333333332, 28.673333333333332)"><svg xmlns="http://www.w3.org/2000/svg" id="Layer_1" data-name="Layer 1" viewBox="0 0 100 100" width="57.346666666666664" height="57.346666666666664"><path d="M50,100a50,50,0,1,1,50-50v50Z" fill="#7678ED"/></svg></g><g transform="translate(516.12,&#10;                                344.08) rotate(90, 28.673333333333332, 28.673333333333332)"><svg xmlns="http://www.w3.org/2000/svg" id="Layer_1" data-name="Layer 1" viewBox="0 0 100 100" width="57.346666666666664" height="57.346666666666664"><path d="M50,100h0A50,50,0,0,1,0,50V0H100V50A50,50,0,0,1,50,100Z" fill="#F7B801"/></svg></g><g transform="translate(516.12,&#10;                                401.43) rotate(270, 28.673333333333332, 28.673333333333332)"><svg xmlns="http://www.w3.org/2000/svg" id="Layer_1" data-name="Layer 1" viewBox="0 0 100 100" width="57.346666666666664" height="57.346666666666664"><path d="M100,100A50,50,0,0,0,0,100Z" fill="#3D348B"/></svg></g><g transform="translate(573.47,&#10;                                344.08) rotate(180, 28.673333333333332, 28.673333333333332)"><svg xmlns="http://www.w3.org/2000/svg" id="Layer_1" data-name="Layer 1" viewBox="0 0 100 100" width="57.346666666666664" height="57.346666666666664"><path d="M100,100A50,50,0,0,0,0,100Z" fill="#3D348B"/></svg></g></g><g><g transform="translate(0.00,&#10;                                458.77) rotate(90, 28.673333333333332, 28.673333333333332)"><svg xmlns="http://www.w3.org/2000/svg" id="Layer_1" data-name="Layer 1" viewBox="0 0 100 100" width="57.346666666666664" height="57.346666666666664"><path d="M100,100A50,50,0,0,0,0,100Z" fill="#3D348B"/></svg></g><g transform="translate(0.00,&#10;                                516.12) rotate(270, 28.673333333333332, 28.673333333333332)"><svg xmlns="http://www.w3.org/2000/svg" id="Layer_1" data-name="Layer 1" viewBox="0 0 100 100" width="57.346666666666664" height="57.346666666666664"><path d="M50,100h0A50,50,0,0,1,0,50V0H100V50A50,50,0,0,1,50,100Z" fill="#F7B801"/></svg></g><g transform="translate(57.35,&#10;                                516.12) rotate(0, 28.673333333333332, 28.673333333333332)"><svg xmlns="http://www.w3.org/2000/svg" id="Layer_1" data-name="Layer 1" viewBox="0 0 100 100" width="57.346666666666664" height="57.346666666666664"><circle cx="50" cy="50" r="50" fill="#F18701"/></svg></g><g transform="translate(172.04,&#10;                                516.12) rotate(0, 28.673333333333332, 28.673333333333332)"><svg xmlns="http://www.w3.org/2000/svg" id="Layer_1" data-name="Layer 1" viewBox="0 0 100 100" width="57.346666666666664" height="57.346666666666664"><circle cx="50" cy="50" r="50" fill="#F18701"/></svg></g><g transform="translate(229.39,&#10;                                458.77) rotate(270, 28.673333333333332, 28.673333333333332)"><svg xmlns="http://www.w3.org/2000/svg" id="Layer_1" data-name="Layer 1" viewBox="0 0 100 100" width="57.346666666666664" height="57.346666666666664"><path d="M50,100a50,50,0,1,1,50-50v50Z" fill="#7678ED"/></svg></g><g transform="translate(286.73,&#10;                                458.77) rotate(0, 28.673333333333332, 28.673333333333332)"><svg xmlns="http://www.w3.org/2000/svg" id="Layer_1" data-name="Layer 1" viewBox="0 0 100 100" width="57.346666666666664" height="57.346666666666664"><path d="M50,100a50,50,0,1,1,50-50v50Z" fill="#7678ED"/></svg></g><g transform="translate(286.73,&#10;                                516.12) rotate(270, 28.673333333333332, 28.673333333333332)"><svg xmlns="http://www.w3.org/2000/svg" id="Layer_1" data-name="Layer 1" viewBox="0 0 100 100" width="57.346666666666664" height="57.346666666666664"><circle cx="50" cy="50" r="50" fill="#F18701"/></svg></g><g transform="translate(344.08,&#10;                                458.77) rotate(90, 28.673333333333332, 28.673333333333332)"><svg xmlns="http://www.w3.org/2000/svg" id="Layer_1" data-name="Layer 1" viewBox="0 0 100 100" width="57.346666666666664" height="57.346666666666664"><path d="M50,100a50,50,0,1,1,50-50v50Z" fill="#7678ED"/></svg></g><g transform="translate(401.43,&#10;                                458.77) rotate(270, 28.673333333333332, 28.673333333333332)"><svg xmlns="http://www.w3.org/2000/svg" id="Layer_1" data-name="Layer 1" viewBox="0 0 100 100" width="57.346666666666664" height="57.346666666666664"><path d="M50,100a50,50,0,1,1,50-50v50Z" fill="#7678ED"/></svg></g><g transform="translate(516.12,&#10;                                458.77) rotate(270, 28.673333333333332, 28.673333333333332)"><svg xmlns="http://www.w3.org/2000/svg" id="Layer_1" data-name="Layer 1" viewBox="0 0 100 100" width="57.346666666666664" height="57.346666666666664"><path d="M50,100a50,50,0,1,1,50-50v50Z" fill="#7678ED"/></svg></g><g transform="translate(516.12,&#10;                                516.12) rotate(0, 28.673333333333332, 28.673333333333332)"><svg xmlns="http://www.w3.org/2000/svg" id="Layer_1" data-name="Layer 1" viewBox="0 0 100 100" width="57.346666666666664" height="57.346666666666664"><path d="M100,100A50,50,0,0,0,0,100Z" fill="#3D348B"/></svg></g><g transform="translate(573.47,&#10;                                458.77) rotate(180, 28.673333333333332, 28.673333333333332)"><svg xmlns="http://www.w3.org/2000/svg" id="Layer_1" data-name="Layer 1" viewBox="0 0 100 100" width="57.346666666666664" height="57.346666666666664"><path d="M50,100a50,50,0,1,1,50-50v50Z" fill="#7678ED"/></svg></g><g transform="translate(630.81,&#10;                                458.77) rotate(270, 28.673333333333332, 28.673333333333332)"><svg xmlns="http://www.w3.org/2000/svg" id="Layer_1" data-name="Layer 1" viewBox="0 0 100 100" width="57.346666666666664" height="57.346666666666664"><path d="M50,100a50,50,0,1,1,50-50v50Z" fill="#7678ED"/></svg></g><g transform="translate(573.47,&#10;                                516.12) rotate(270, 28.673333333333332, 28.673333333333332)"><svg xmlns="http://www.w3.org/2000/svg" id="Layer_1" data-name="Layer 1" viewBox="0 0 100 100" width="57.346666666666664" height="57.346666666666664"><path d="M50,100h0A50,50,0,0,1,0,50V0H100V50A50,50,0,0,1,50,100Z" fill="#F7B801"/></svg></g></g><g><g transform="translate(0.00,&#10;                                573.47) rotate(180, 28.673333333333332, 28.673333333333332)"><svg xmlns="http://www.w3.org/2000/svg" id="Layer_1" data-name="Layer 1" viewBox="0 0 100 100" width="57.346666666666664" height="57.346666666666664"><path d="M50,100h0A50,50,0,0,1,0,50V0H100V50A50,50,0,0,1,50,100Z" fill="#F7B801"/></svg></g><g transform="translate(57.35,&#10;                                573.47) rotate(270, 28.673333333333332, 28.673333333333332)"><svg xmlns="http://www.w3.org/2000/svg" id="Layer_1" data-name="Layer 1" viewBox="0 0 100 100" width="57.346666666666664" height="57.346666666666664"><path d="M50,100a50,50,0,1,1,50-50v50Z" fill="#7678ED"/></svg></g><g transform="translate(0.00,&#10;                                630.81) rotate(180, 28.673333333333332, 28.673333333333332)"><svg xmlns="http://www.w3.org/2000/svg" id="Layer_1" data-name="Layer 1" viewBox="0 0 100 100" width="57.346666666666664" height="57.346666666666664"><path d="M50,100h0A50,50,0,0,1,0,50V0H100V50A50,50,0,0,1,50,100Z" fill="#F7B801"/></svg></g><g transform="translate(172.04,&#10;                                573.47) rotate(180, 28.673333333333332, 28.673333333333332)"><svg xmlns="http://www.w3.org/2000/svg" id="Layer_1" data-name="Layer 1" viewBox="0 0 100 100" width="57.346666666666664" height="57.346666666666664"><path d="M50,100h0A50,50,0,0,1,0,50V0H100V50A50,50,0,0,1,50,100Z" fill="#F7B801"/></svg></g><g transform="translate(172.04,&#10;                                630.81) rotate(90, 28.673333333333332, 28.673333333333332)"><svg xmlns="http://www.w3.org/2000/svg" id="Layer_1" data-name="Layer 1" viewBox="0 0 100 100" width="57.346666666666664" height="57.346666666666664"><circle cx="50" cy="50" r="50" fill="#F18701"/></svg></g><g transform="translate(286.73,&#10;                                573.47) rotate(90, 28.673333333333332, 28.673333333333332)"><svg xmlns="http://www.w3.org/2000/svg" id="Layer_1" data-name="Layer 1" viewBox="0 0 100 100" width="57.346666666666664" height="57.346666666666664"><path d="M50,100h0A50,50,0,0,1,0,50V0H100V50A50,50,0,0,1,50,100Z" fill="#F7B801"/></svg></g><g transform="translate(401.43,&#10;                                573.47) rotate(270, 28.673333333333332, 28.673333333333332)"><svg xmlns="http://www.w3.org/2000/svg" id="Layer_1" data-name="Layer 1" viewBox="0 0 100 100" width="57.346666666666664" height="57.346666666666664"><path d="M50,100a50,50,0,1,1,50-50v50Z" fill="#7678ED"/></svg></g><g transform="translate(344.08,&#10;                                630.81) rotate(0, 28.673333333333332, 28.673333333333332)"><svg xmlns="http://www.w3.org/2000/svg" id="Layer_1" data-name="Layer 1" viewBox="0 0 100 100" width="57.346666666666664" height="57.346666666666664"><path d="M50,100a50,50,0,1,1,50-50v50Z" fill="#7678ED"/></svg></g><g transform="translate(401.43,&#10;                                630.81) rotate(0, 28.673333333333332, 28.673333333333332)"><svg xmlns="http://www.w3.org/2000/svg" id="Layer_1" data-name="Layer 1" viewBox="0 0 100 100" width="57.346666666666664" height="57.346666666666664"><circle cx="50" cy="50" r="50" fill="#F18701"/></svg></g><g transform="translate(458.77,&#10;                                573.47) rotate(90, 28.673333333333332, 28.673333333333332)"><svg xmlns="http://www.w3.org/2000/svg" id="Layer_1" data-name="Layer 1" viewBox="0 0 100 100" width="57.346666666666664" height="57.346666666666664"><path d="M50,100a50,50,0,1,1,50-50v50Z" fill="#7678ED"/></svg></g><g transform="translate(458.77,&#10;                                630.81) rotate(270, 28.673333333333332, 28.673333333333332)"><svg xmlns="http://www.w3.org/2000/svg" id="Layer_1" data-name="Layer 1" viewBox="0 0 100 100" width="57.346666666666664" height="57.346666666666664"><path d="M50,100h0A50,50,0,0,1,0,50V0H100V50A50,50,0,0,1,50,100Z" fill="#F7B801"/></svg></g><g transform="translate(516.12,&#10;                                630.81) rotate(0, 28.673333333333332, 28.673333333333332)"><svg xmlns="http://www.w3.org/2000/svg" id="Layer_1" data-name="Layer 1" viewBox="0 0 100 100" width="57.346666666666664" height="57.346666666666664"><circle cx="50" cy="50" r="50" fill="#F18701"/></svg></g><g transform="translate(573.47,&#10;                                573.47) rotate(0, 28.673333333333332, 28.673333333333332)"><svg xmlns="http://www.w3.org/2000/svg" id="Layer_1" data-name="Layer 1" viewBox="0 0 100 100" width="57.346666666666664" height="57.346666666666664"><path d="M50,100a50,50,0,1,1,50-50v50Z" fill="#7678ED"/></svg></g><g transform="translate(630.81,&#10;                                573.47) rotate(90, 28.673333333333332, 28.673333333333332)"><svg xmlns="http://www.w3.org/2000/svg" id="Layer_1" data-name="Layer 1" viewBox="0 0 100 100" width="57.346666666666664" height="57.346666666666664"><path d="M50,100a50,50,0,1,1,50-50v50Z" fill="#7678ED"/></svg></g><g transform="translate(630.81,&#10;                                630.81) rotate(0, 28.673333333333332, 28.673333333333332)"><svg xmlns="http://www.w3.org/2000/svg" id="Layer_1" data-name="Layer 1" viewBox="0 0 100 100" width="57.346666666666664" height="57.346666666666664"><path d="M100,100A50,50,0,0,0,0,100Z" fill="#3D348B"/></svg></g></g></svg>